Coordinates
version=1
nRows=24
nColumns=22
inDegrees=yes

Units are S.I. units (second, meters, Newtons, ...)
If the header above contains a line with 'inDegrees', this indicates whether rotational values are in degrees (yes) or radians (no).

endheader
time	pelvis_tilt	pelvis_list	pelvis_rotation	pelvis_tx	pelvis_ty	pelvis_tz	hip_flexion_r	hip_adduction_r	hip_rotation_r	knee_angle_r	ankle_angle_r	subtalar_angle_r	hip_flexion_l	hip_adduction_l	hip_rotation_l	knee_angle_l	ankle_angle_l	subtalar_angle_l	lumbar_extension	lumbar_bending	lumbar_rotation
      3.91000000	     -4.81289939	     -3.46445940	    -45.91858175	      0.84727045	      0.87612352	      0.85777903	      0.14611934	      8.53552803	      8.39664985	    -13.10258718	     16.65119932	     -8.44471152	     28.27431611	    -16.36049833	     -7.85232612	    -37.38864732	     10.24350873	     -0.78948798	     -2.86428758	      6.59010444	     22.01735601
      3.92000000	     -5.07469579	     -3.49803395	    -46.45075951	      0.85442130	      0.87446199	      0.86291305	     -0.27954747	      8.59636602	      8.76240616	    -13.23655518	     17.31672249	     -8.37337733	     28.75695803	    -16.44873249	     -6.66857836	    -34.64529388	      9.75172632	     -0.50053364	     -2.71077446	      6.80580452	     22.59916480
      3.93000000	     -5.34297939	     -3.53915020	    -46.99768717	      0.86153570	      0.87264377	      0.86801241	     -0.62135842	      8.67148351	      9.14700206	    -13.53804347	     18.03755924	     -8.23894624	     29.18615340	    -16.57504627	     -5.36609057	    -31.94883507	      9.36251938	      0.09256152	     -2.57497760	      7.03382527	     23.15619522
      3.94000000	     -5.57892310	     -3.53863759	    -47.54104703	      0.86868418	      0.87070734	      0.87312017	     -0.90504005	      8.69020966	      9.50701981	    -13.94152584	     18.78721139	     -8.15831713	     29.55838763	    -16.68323457	     -4.02710046	    -29.29534085	      8.98027907	      0.51686180	     -2.43057493	      7.19608751	     23.70996465
      3.95000000	     -5.79370575	     -3.55570395	    -48.07446527	      0.87585462	      0.86867732	      0.87827674	     -1.18775998	      8.71203127	      9.90824470	    -14.42065477	     19.57353124	     -8.05698893	     29.87265777	    -16.84433374	     -2.70165911	    -26.74153249	      8.67271598	      1.04777764	     -2.31844990	      7.34474247	     24.23061128
      3.96000000	     -5.95455597	     -3.56806308	    -48.58887012	      0.88307348	      0.86659172	      0.88351333	     -1.49075749	      8.69183630	     10.30763334	    -14.94700053	     20.38581903	     -7.98460552	     30.12177541	    -17.01771735	     -1.44858217	    -24.29690118	      8.38655585	      1.50217471	     -2.23655582	      7.42629191	     24.73029785
      3.97000000	     -6.06623866	     -3.58775382	    -49.08241829	      0.89034307	      0.86446933	      0.88880441	     -1.82849807	      8.63979567	     10.72183546	    -15.50075280	     21.20992641	     -7.93694661	     30.32281930	    -17.21275133	     -0.31070964	    -21.99680189	      8.11235458	      1.88107255	     -2.19522337	      7.46050389	     25.18288162
      3.98000000	     -6.13416449	     -3.61300823	    -49.55286343	      0.89766251	      0.86231828	      0.89416872	     -2.20516141	      8.55721736	     11.13428595	    -16.06503394	     22.02847246	     -7.90111531	     30.49124817	    -17.42874437	      0.67113402	    -19.85790366	      7.85820165	      2.24010875	     -2.18645793	      7.44505539	     25.58291197
      3.99000000	     -6.16885975	     -3.66110481	    -50.00321070	      0.90503495	      0.86016072	      0.89957156	     -2.64113499	      8.45826454	     11.54500611	    -16.60825559	     22.83749486	     -7.86131552	     30.63967976	    -17.67623074	      1.47436787	    -17.90943138	      7.63127762	      2.65635638	     -2.22185527	      7.40838960	     25.91349100
      4.00000000	     -6.17876894	     -3.69229464	    -50.43364466	      0.91248808	      0.85798066	      0.90499116	     -3.09738034	      8.31307250	     11.88330546	    -17.12250503	     23.59876123	     -7.84910757	     30.79744944	    -17.91934551	      2.09627246	    -16.14702223	      7.39002268	      2.94390571	     -2.25521013	      7.32622191	     26.22149048
      4.01000000	     -6.17491737	     -3.73974454	    -50.84581620	      0.92003413	      0.85581110	      0.91040930	     -3.61025867	      8.15100777	     12.18089273	    -17.57732261	     24.31891081	     -7.83746277	     30.95804053	    -18.17944482	      2.52628860	    -14.59298135	      7.17761145	      3.23586087	     -2.31285609	      7.23961839	     26.46732040
      4.02000000	     -6.16760569	     -3.79732003	    -51.23505898	      0.92771942	      0.85365551	      0.91578744	     -4.17076017	      7.97031227	     12.42091893	    -17.96399110	     24.98254698	     -7.82697695	     31.13201148	    -18.44436768	      2.76541215	    -13.25041499	      6.99635697	      3.51118416	     -2.38098198	      7.16000168	     26.65702344
      4.03000000	     -6.15992016	     -3.86489558	    -51.60017191	      0.93558654	      0.85152649	      0.92111467	     -4.78561915	      7.76866382	     12.60695640	    -18.26736892	     25.57933334	     -7.80774965	     31.31674419	    -18.70449631	      2.82816579	    -12.12595087	      6.88658501	      3.78792757	     -2.45633926	      7.09367450	     26.78967670
      4.04000000	     -6.17745287	     -3.93802118	    -51.94612296	      0.94361091	      0.84940577	      0.92636966	     -5.40879567	      7.56783633	     12.72660539	    -18.53055344	     26.10937453	     -7.77922498	     31.53234789	    -18.97298342	      2.73581610	    -11.21898073	      6.79551867	      3.97704394	     -2.51985992	      7.06188667	     26.87307903
      4.05000000	     -6.19409365	     -4.01097867	    -52.27251434	      0.95185830	      0.84733517	      0.93158265	     -6.07635113	      7.33412880	     12.80857603	    -18.71524228	     26.56230674	     -7.71147334	     31.73924733	    -19.22031876	      2.50902147	    -10.51782455	      6.80413029	      4.15803653	     -2.57896857	      7.03785165	     26.92560565
      4.06000000	     -6.23795864	     -4.08324487	    -52.58774780	      0.96028236	      0.84529618	      0.93675067	     -6.74578186	      7.09398720	     12.84566401	    -18.85856514	     26.93021164	     -7.58991161	     31.95871636	    -19.47022883	      2.19273092	    -10.02783540	      6.85518854	      4.28161569	     -2.61802192	      7.04545438	     26.94738956
      4.07000000	     -6.31898473	     -4.15315091	    -52.89108750	      0.96888449	      0.84328219	      0.94186769	     -7.39853642	      6.85627981	     12.85715526	    -18.97960857	     27.22025793	     -7.42112849	     32.19390605	    -19.72542048	      1.82652895	     -9.74467896	      6.93875493	      4.32456648	     -2.62881890	      7.09402157	     26.95003569
      4.08000000	     -6.37949610	     -4.24416615	    -53.17121127	      0.97775529	      0.84141640	      0.94697034	     -8.10669152	      6.58806616	     12.89930569	    -19.06231221	     27.40610693	     -7.10268450	     32.35109167	    -19.94885477	      1.40665979	     -9.63029034	      6.98314700	      4.29874262	     -2.66302236	      7.14599570	     26.93991831
      4.09000000	     -6.42988033	     -4.34927968	    -53.41326413	      0.98700160	      0.83965925	      0.95209758	     -8.86536869	      6.30623331	     13.07573476	    -19.11394481	     27.50401257	     -6.80542018	     32.44619542	    -20.13000732	      0.97741951	     -9.69548255	      7.09910317	      4.17454134	     -2.69062832	      7.21378967	     26.89360282
      4.10000000	     -6.46800045	     -4.45660110	    -53.63558202	      0.99654856	      0.83800649	      0.95726304	     -9.65147037	      5.99363684	     13.31879253	    -19.14632572	     27.50480515	     -6.45717502	     32.46909616	    -20.27133624	      0.52831851	     -9.91337017	      7.23105556	      3.98191995	     -2.70679624	      7.28154894	     26.84355436
      4.11000000	     -6.50088607	     -4.54292776	    -53.85033118	      1.00633559	      0.83642291	      0.96248532	    -10.42212281	      5.63984371	     13.56717147	    -19.18402763	     27.40989208	     -5.98165601	     32.43352034	    -20.37046862	      0.06081464	    -10.26775425	      7.35582427	      3.71553575	     -2.68719382	      7.33218428	     26.79219326
      4.12000000	     -6.57238087	     -4.63074386	    -54.09418234	      1.01626960	      0.83489399	      0.96777119	    -11.14500400	      5.30687771	     13.89930275	    -19.27233985	     27.21904301	     -5.56447808	     32.35442096	    -20.49529849	     -0.44830607	    -10.74675492	      7.44831255	      3.48700524	     -2.63263380	      7.42486646	     26.78112742
      4.13000000	     -6.60583697	     -4.66458495	    -54.30734985	      1.02651534	      0.83343647	      0.97310913	    -11.84359115	      4.88767791	     14.20199801	    -19.37073177	     26.92383670	     -4.96152331	     32.21152000	    -20.51415863	     -0.95985536	    -11.31285441	      7.45987531	      3.22046010	     -2.52138797	      7.45225036	     26.74914492
      4.14000000	     -6.66043032	     -4.66660228	    -54.53654653	      1.03692730	      0.83203259	      0.97850370	    -12.47087151	      4.46130835	     14.57272396	    -19.52965548	     26.54021193	     -4.39161139	     32.03795587	    -20.51551036	     -1.50450188	    -11.95044423	      7.33353510	      3.05269301	     -2.35059871	      7.48578173	     26.72249626
